<?xml version="1.0" encoding="UTF-8"?>
<svg version="1.1" xmlns="http://www.w3.org/2000/svg" width="512" height="512">
<path d="M0 0 C74.46857607 -1.27617519 142.26777173 38.01726905 195.83349609 86.81494141 C197.43979845 88.27249492 199.05260651 89.72293899 200.67431641 91.16333008 C206.83949918 96.6442705 212.74362494 102.33788298 218.5625 108.18359375 C219.41263672 109.02986328 220.26277344 109.87613281 221.13867188 110.74804688 C225.55524164 115.17143759 229.82444316 119.66132673 233.89770508 124.40307617 C235.75645285 126.56470369 237.69079931 128.65197883 239.625 130.74609375 C244.77920662 136.46514493 249.56247333 142.44290162 254.20361328 148.58203125 C255.17677704 149.86065242 256.17689765 151.11870293 257.18359375 152.37109375 C260.58867034 157.00122622 261.2576862 161.34459468 260.96484375 167.05859375 C258.78992504 178.35088691 247.83949303 187.80986799 240.375 196.12109375 C239.56546875 197.03117188 238.7559375 197.94125 237.921875 198.87890625 C235.75290032 201.30534915 233.56500938 203.71363663 231.375 206.12109375 C230.60671875 206.9821875 229.8384375 207.84328125 229.046875 208.73046875 C223.11308057 215.31952882 216.94749968 221.65365007 210.6875 227.93359375 C209.89166504 228.734021 209.09583008 229.53444824 208.27587891 230.35913086 C203.46986014 235.15266776 198.53189604 239.70934709 193.375 244.12109375 C192.29198888 245.07049798 191.20990966 246.02096664 190.12890625 246.97265625 C181.18618268 254.77337079 171.90690954 262.05542159 162.375 269.12109375 C161.71193848 269.61577148 161.04887695 270.11044922 160.36572266 270.62011719 C127.46786 295.0184825 90.34408814 313.76593338 50.375 323.12109375 C49.67294434 323.28689941 48.97088867 323.45270508 48.24755859 323.62353516 C-12.1229957 337.4433006 -74.80094825 319.51298591 -126.4375 287.68359375 C-148.05796035 274.11631797 -168.22109099 258.61064975 -187.08349609 241.42724609 C-188.68979845 239.96969258 -190.30260651 238.51924851 -191.92431641 237.07885742 C-198.08949918 231.597917 -203.99362494 225.90430452 -209.8125 220.05859375 C-210.66263672 219.21232422 -211.51277344 218.36605469 -212.38867188 217.49414062 C-216.80524164 213.07074991 -221.07444316 208.58086077 -225.14770508 203.83911133 C-227.00645285 201.67748381 -228.94079931 199.59020867 -230.875 197.49609375 C-236.02920662 191.77704257 -240.81247333 185.79928588 -245.45361328 179.66015625 C-246.42677704 178.38153508 -247.42689765 177.12348457 -248.43359375 175.87109375 C-251.83867034 171.24096128 -252.5076862 166.89759282 -252.21484375 161.18359375 C-250.040367 149.89359527 -239.09097506 140.42916682 -231.625 132.12109375 C-230.79226562 131.1878125 -229.95953125 130.25453125 -229.1015625 129.29296875 C-227.69515899 127.72371852 -226.28434898 126.15839637 -224.86743164 124.59863281 C-223.44147779 123.02317504 -222.02236613 121.44147657 -220.61254883 119.8515625 C-214.96721323 113.49833751 -209.08438007 107.42931069 -203.0625 101.43359375 C-202.16853516 100.53576172 -201.27457031 99.63792969 -200.35351562 98.71289062 C-195.27223412 93.63904333 -190.08897297 88.77831549 -184.625 84.12109375 C-183.54181332 83.17188982 -182.4597322 82.22142239 -181.37890625 81.26953125 C-172.43618268 73.46881671 -163.15690954 66.18676591 -153.625 59.12109375 C-152.96193848 58.62641602 -152.29887695 58.13173828 -151.61572266 57.62207031 C-107.47584732 24.8861806 -55.4387554 1.85194118 0 0 Z M-187.625 135.99609375 C-188.50937744 136.87579834 -189.39375488 137.75550293 -190.30493164 138.66186523 C-194.75603573 143.12396283 -199.06098116 147.64809687 -203.1640625 152.43261719 C-205.48031268 155.10962024 -207.96429106 157.63222145 -210.4375 160.1640625 C-211.81343443 162.06940162 -211.81343443 162.06940162 -211.6953125 164.43359375 C-210.12182288 168.38454578 -207.45394728 170.93041401 -204.5 173.93359375 C-203.37114372 175.10556607 -202.24354681 176.27875268 -201.1171875 177.453125 C-200.53815674 178.05342529 -199.95912598 178.65372559 -199.36254883 179.2722168 C-197.64567646 181.09909251 -196.0092493 182.97469471 -194.37890625 184.87890625 C-190.18445976 189.71384659 -185.67055322 194.22585298 -181.13696289 198.73950195 C-179.68975615 200.18134596 -178.24797974 201.62846491 -176.80664062 203.07617188 C-171.58288037 208.3040734 -166.25740203 213.33602405 -160.625 218.12109375 C-159.49512724 219.10566279 -158.36619073 220.09130747 -157.23828125 221.078125 C-149.58176031 227.72103022 -141.78455953 234.10285509 -133.625 240.12109375 C-132.99787109 240.58483398 -132.37074219 241.04857422 -131.72460938 241.52636719 C-120.45939545 249.80115877 -108.76528976 257.19910322 -96.625 264.12109375 C-95.84398926 264.56727051 -95.06297852 265.01344727 -94.25830078 265.47314453 C-49.24113402 290.88958073 2.03630997 300.3878507 52.32421875 286.6171875 C108.78953508 270.29371815 154.8974 233.56600095 195.875 192.74609375 C196.7117627 191.91400391 197.54852539 191.08191406 198.41064453 190.22460938 C204.94929634 183.66889908 211.06437947 176.88187757 216.8125 169.62109375 C217.83150391 168.3371875 217.83150391 168.3371875 218.87109375 167.02734375 C219.61552734 166.08375 219.61552734 166.08375 220.375 165.12109375 C218.91885941 160.36436782 216.07088503 157.30850373 212.6875 153.80859375 C211.66159222 152.73027688 210.63686589 151.65083484 209.61328125 150.5703125 C209.08178467 150.01126221 208.55028809 149.45221191 208.00268555 148.8762207 C206.34237103 147.08591006 204.75226076 145.24896611 203.1640625 143.39453125 C198.95475724 138.55211674 194.43152081 134.02725387 189.88696289 129.50268555 C188.43975615 128.06084154 186.99797974 126.61372259 185.55664062 125.16601562 C180.33246009 119.93780573 175.00102108 114.91391649 169.375 110.12109375 C168.32648854 109.19586162 167.27953684 108.26885801 166.234375 107.33984375 C93.71740255 43.6142169 5.33814255 13.9029994 -187.625 135.99609375 Z " fill="#00F361" transform="translate(251.625,91.87890625)"/>
<path d="M0 0 C6.6 0 13.2 0 20 0 C20 3.63 20 7.26 20 11 C21.5675 11.0825 23.135 11.165 24.75 11.25 C35.30158797 12.23878809 44.32255685 16.01347128 53 22 C53.63679688 22.42796875 54.27359375 22.8559375 54.9296875 23.296875 C61.80973531 28.49513335 66.18476246 36.97589301 69 45 C69.125 47.8125 69.125 47.8125 69 50 C64.3577643 52.32111785 58.29219458 52.07670859 53.1875 52.625 C51.90294922 52.77195313 50.61839844 52.91890625 49.29492188 53.0703125 C47.43770508 53.27140625 47.43770508 53.27140625 45.54296875 53.4765625 C43.8417688 53.663396 43.8417688 53.663396 42.10620117 53.85400391 C39.17209739 53.99191117 36.83326771 53.72179686 34 53 C33.71125 52.113125 33.4225 51.22625 33.125 50.3125 C32.75375 49.219375 32.3825 48.12625 32 47 C31.71125 46.0925 31.4225 45.185 31.125 44.25 C29.73690366 41.47380732 28.85356399 41.10971933 26 40 C24.02 39.01 22.04 38.02 20 37 C20 50.53 20 64.06 20 78 C25.28 79.32 30.56 80.64 36 82 C45.16159479 85.21893871 54.47214063 88.66251482 62 95 C62 95.66 62 96.32 62 97 C62.66 97 63.32 97 64 97 C71.6055335 104.39997854 74.22246797 113.05251358 74.5949707 123.40161133 C74.70899548 134.92923815 73.53092998 144.20360503 67 154 C66.34 154 65.68 154 65 154 C64.75765625 154.57105469 64.5153125 155.14210938 64.265625 155.73046875 C58.62698333 165.84173669 46.19971448 171.61705563 35.68359375 175.09765625 C30.1085721 176.59781852 25.91949121 177 20 177 C20 183.93 20 190.86 20 198 C13.4 198 6.8 198 0 198 C0 191.4 0 184.8 0 178 C-2.97 177.67 -5.94 177.34 -9 177 C-18.06135766 174.66728126 -26.3120056 171.39176923 -34 166 C-35.03125 165.278125 -36.0625 164.55625 -37.125 163.8125 C-46.01679025 155.82495961 -50.77215163 145.27301591 -54 134 C-54.15625 131.0234375 -54.15625 131.0234375 -54 129 C-42.34120707 127.47992953 -30.74542107 126.52201871 -19 126 C-18.75765625 126.58007812 -18.5153125 127.16015625 -18.265625 127.7578125 C-14.63780872 136.21341507 -10.44465532 142.45090374 -3 148 C-2.01 148.33 -1.02 148.66 0 149 C0 134.48 0 119.96 0 105 C-3.3 104.34 -6.6 103.68 -10 103 C-12.76039231 102.03281709 -15.34612836 101.06192421 -18 99.875 C-18.68497559 99.57078125 -19.36995117 99.2665625 -20.07568359 98.953125 C-32.13098017 93.36423839 -41.5535041 84.15594737 -47 72 C-50.50301708 61.7604116 -50.62799518 49.52597979 -46.34375 39.50390625 C-43.35831195 33.94092431 -39.82169649 28.16722799 -35 24 C-34.34 24 -33.68 24 -33 24 C-33 23.34 -33 22.68 -33 22 C-22.38437835 15.7309321 -12.37051035 11.72767708 0 11 C0 7.37 0 3.74 0 0 Z M-6.4375 39.75 C-7.21996094 40.26046875 -8.00242187 40.7709375 -8.80859375 41.296875 C-11.93376105 43.72570378 -13.67619329 45.66173557 -14.6171875 49.55078125 C-15.17276431 55.50218736 -15.39089648 59.81392303 -12 65 C-6.75424525 70.1916209 -6.75424525 70.1916209 0 72 C0 60.45 0 48.9 0 37 C-2.79517842 37 -4.12100186 38.21327545 -6.4375 39.75 Z M20 110 C20 123.86 20 137.72 20 152 C31.40346558 148.6107029 31.40346558 148.6107029 39.4375 141 C42.1071739 135.74155141 41.71439355 129.70778353 41 124 C38.59026922 118.60220305 34.9682607 115.96492977 30 113 C26.7 112.01 23.4 111.02 20 110 Z " fill="#00F361" transform="translate(188,157)"/>
<path d="M0 0 C0.9987767 -0.00700928 1.99755341 -0.01401855 3.02659607 -0.02124023 C6.32986203 -0.03885318 9.63227211 -0.02718532 12.93554688 -0.01367188 C15.22953455 -0.01636583 17.52352112 -0.02024744 19.81750488 -0.02526855 C24.62600574 -0.0311681 29.43420945 -0.02258566 34.24267578 -0.00390625 C40.41016542 0.01888317 46.57695883 0.00576259 52.74442291 -0.01819611 C57.48160052 -0.03264154 62.21861273 -0.02805378 66.95579529 -0.01768494 C69.23001691 -0.0150142 71.50425348 -0.01829955 73.77845764 -0.02760315 C76.95557506 -0.03774772 80.13156075 -0.02229598 83.30859375 0 C84.25105453 -0.00809692 85.19351532 -0.01619385 86.16453552 -0.02453613 C92.51871125 0.05818851 92.51871125 0.05818851 95.7364502 2.38391113 C97.53102295 5.08449979 97.68976225 6.79022931 97.65429688 10.01757812 C97.66976562 11.42523438 97.66976562 11.42523438 97.68554688 12.86132812 C96.97012806 16.43842222 96.12461693 17.37068533 93.15429688 19.51757812 C89.87741367 20.12351803 86.63306535 20.06371764 83.30859375 20.03515625 C82.30981705 20.04216553 81.31104034 20.0491748 80.28199768 20.05639648 C76.97873172 20.07400943 73.67632164 20.06234157 70.37304688 20.04882812 C68.0790592 20.05152208 65.78507263 20.05540369 63.49108887 20.0604248 C58.68258801 20.06632435 53.8743843 20.05774191 49.06591797 20.0390625 C42.89842833 20.01627308 36.73163492 20.02939366 30.56417084 20.05335236 C25.82699323 20.06779779 21.08998102 20.06321003 16.35279846 20.05284119 C14.07857684 20.05017045 11.80434027 20.0534558 9.53013611 20.0627594 C6.35301869 20.07290397 3.177033 20.05745223 0 20.03515625 C-0.94246078 20.04325317 -1.88492157 20.0513501 -2.85594177 20.05969238 C-9.2101175 19.97696774 -9.2101175 19.97696774 -12.42785645 17.65124512 C-14.2224292 14.95065646 -14.3811685 13.24492694 -14.34570312 10.01757812 C-14.35601562 9.07914062 -14.36632812 8.14070313 -14.37695312 7.17382812 C-12.81366855 -0.64259475 -6.56140475 -0.05637072 0 0 Z " fill="#00F361" transform="translate(285.845703125,300.482421875)"/>
</svg>
