<svg width="250" height="250" viewBox="0 0 250 250" fill="none" xmlns="http://www.w3.org/2000/svg">
<g clip-path="url(#clip0_1_12)">
<path d="M125.5 76.6923C174.99 76.6923 209.49 108.067 224.5 124.984C209.906 144.119 175.406 180.859 125.5 180.859C79.4583 180.859 42.8958 144.026 26.7708 124.536C42.3229 107.38 76.9479 76.6923 125.5 76.6923ZM125.5 55.859C46.6563 55.859 0.34375 124.099 0.34375 124.099C0.34375 124.099 50.7083 201.692 125.5 201.692C206.052 201.692 250.344 124.099 250.344 124.099C250.344 124.099 205.646 55.859 125.5 55.859Z" fill="#3BAFF7"/>
<path fill-rule="evenodd" clip-rule="evenodd" d="M109.5 152.75H185.5V159.25H109.5V152.75Z" fill="#3BAFF7"/>
<path d="M147.16 145L143.032 134.392H129.448L125.368 145H121L134.392 110.584H138.28L151.624 145H147.16ZM137.896 120.184C137.8 119.928 137.64 119.464 137.416 118.792C137.192 118.12 136.968 117.432 136.744 116.728C136.552 115.992 136.392 115.432 136.264 115.048C136.104 115.688 135.928 116.344 135.736 117.016C135.576 117.656 135.4 118.248 135.208 118.792C135.048 119.336 134.904 119.8 134.776 120.184L130.888 130.552H141.736L137.896 120.184ZM165.96 145H153.576V142.504L157.608 141.592V114.184L153.576 113.224V110.728H165.96V113.224L161.928 114.184V141.592L165.96 142.504V145Z" fill="#3BAFF7"/>
<path d="M83.7787 120.088C94.2891 124.711 108 128.143 108 140.477C108.012 150.356 99.7501 155.611 89.5714 156.945V163H83.4286V157.262C77.0707 157.152 70.4917 155.738 65 153.081L70.4017 150.365L67.795 143.628C73.6676 145.767 81.4813 148.033 87.6057 146.733C94.6638 145.232 96.1074 138.436 88.306 135.17C82.587 132.68 65.0983 130.541 65.0983 116.523C65.0983 108.685 72.4017 102.274 83.4286 100.135V94H89.5714V99.8535C94.0188 99.9628 98.9017 100.865 104.578 102.274L99.4017 105.92L102.355 111.745C97.637 110.192 92.4217 108.783 87.3477 109.071C78.201 109.571 77.3963 116.983 83.7787 120.088Z" fill="#3BAFF7"/>
</g>
<defs>
<clipPath id="clip0_1_12">
<rect width="250" height="250" fill="white"/>
</clipPath>
</defs>
</svg>
